<svg width="86" height="94" viewBox="0 0 86 94" fill="none" xmlns="http://www.w3.org/2000/svg">
<path d="M37.6629 4.47826e-07C46.8078 -0.00140803 55.6408 3.31964 62.5133 9.34331C69.3858 15.367 73.8282 23.6817 75.0113 32.7355L85.6029 49.3688C86.2996 50.4639 86.1584 52.0948 84.5437 52.7904L75.322 56.729V70.5C75.322 72.993 74.3301 75.384 72.5645 77.1468C70.7988 78.9096 68.4042 79.9 65.9072 79.9H56.4971L56.4924 94H14.126V76.6382C14.126 71.0922 12.0735 65.8423 8.26526 61.1047C3.8295 55.575 1.04874 48.9065 0.243372 41.8676C-0.561997 34.8287 0.6408 27.7059 3.71318 21.3197C6.78556 14.9336 11.6025 9.54409 17.609 5.77214C23.6155 2.00018 30.5671 -0.000710503 37.6629 4.47826e-07ZM37.6629 9.4C32.3416 9.39978 27.1284 10.9005 22.624 13.7292C18.1196 16.5579 14.5072 20.5995 12.2029 25.3885C9.89858 30.1775 8.99616 35.519 9.59956 40.7977C10.203 46.0764 12.2877 51.0776 15.6135 55.225C20.7634 61.6358 23.5407 68.9349 23.5407 76.6382V84.6H47.0777L47.0871 70.5H65.9072V50.5344L73.2037 47.4136L65.9402 36.0161L65.6718 33.9387C64.7817 27.1511 61.449 20.9185 56.2954 16.4034C51.1418 11.8883 44.5192 9.39911 37.6629 9.4Z" fill="#F2FCE6"/>
<path fill-rule="evenodd" clip-rule="evenodd" d="M60.3468 35.4195C60.3468 33.8484 60.1076 32.2625 59.6871 30.7209C59.6947 30.7077 59.7028 30.6949 59.711 30.6822C59.7211 30.6664 59.7311 30.6508 59.7398 30.6345C60.0349 30.0886 60.2172 29.4711 60.2161 28.8178C60.2182 27.8452 59.8115 26.8421 59.0001 25.9074C58.2361 25.0233 57.2993 24.3173 56.2772 23.7367C55.449 22.6387 54.5227 21.6566 53.5206 20.8347C49.1286 17.2372 43.7735 15.0633 38.2824 15.0623C38.0899 15.0623 37.8973 15.0695 37.7041 15.0768L37.5859 15.0812C37.4763 15.0286 37.3541 14.998 37.2245 15.0001C35.2803 15.0286 33.5469 15.4532 31.9294 16.0834C31.1412 16.3426 30.3572 16.6492 29.5827 17.0138C28.7303 17.4142 27.9589 17.9 27.255 18.448C27.0904 18.5435 26.9258 18.6392 26.7609 18.7351L26.7604 18.7354L26.7603 18.7355L26.7602 18.7355L26.7599 18.7357C26.1883 19.0682 25.614 19.4022 25.0295 19.7325C24.9157 19.7967 24.6849 19.9148 24.392 20.0623L24.2248 20.1464C23.1657 20.6789 21.4272 21.5529 19.8904 22.5881C19.079 23.1371 18.3203 23.7283 17.7302 24.3774C17.4352 24.703 17.1813 25.0444 16.9905 25.4174C16.8008 25.7894 16.6744 26.2014 16.6744 26.6419C16.6712 27.1276 16.843 27.6282 17.1581 28.0412C17.4289 28.4058 17.804 28.6587 18.1918 28.801C18.5817 28.9453 18.9831 28.9938 19.3846 28.9949C20.1539 28.9917 20.9442 28.8147 21.6913 28.586C21.6861 28.6127 21.6818 28.6393 21.6774 28.6659C21.6728 28.6939 21.6682 28.7218 21.6628 28.7493C20.6502 29.2983 19.6438 29.9127 18.6892 30.5987C17.4795 31.4701 16.3541 32.4554 15.4183 33.5713C14.4837 34.6872 13.7376 35.938 13.3108 37.3279C13.099 38.0159 13 38.6956 13 39.3553C13 41.1024 13.6934 42.6693 14.6881 43.9875C15.686 45.31 16.9905 46.409 18.3172 47.2815C21.0833 49.0982 24.4384 50.3205 27.8441 50.3237C28.2845 50.3237 28.7261 50.2952 29.1665 50.252C29.6439 50.4659 30.1454 50.6514 30.6723 50.8021C30.8831 51.1013 31.1623 51.3258 31.4531 51.4891C32.0201 51.8052 32.6607 51.9549 33.3162 52.0486C33.9705 52.1403 34.6376 52.1656 35.2276 52.1656C35.8212 52.1656 36.3398 52.1392 36.6602 52.1229L36.6606 52.1229L36.6608 52.1229L36.6609 52.1229L36.7756 52.1171C42.1476 51.859 47.6439 50.2088 52.3373 47.6472C53.1107 47.2246 54.6861 46.3616 56.1023 45.2552C56.8115 44.6998 57.4848 44.0834 58.0085 43.3964C58.2698 43.0518 58.4943 42.6882 58.6566 42.2973C58.7356 42.1087 58.7988 41.9127 58.8441 41.7114C58.8547 41.6919 58.8662 41.6727 58.8778 41.6532C58.8881 41.636 58.8985 41.6186 58.9084 41.6008C59.9126 39.6903 60.3499 37.566 60.3499 35.4174L60.3468 35.4195ZM35.7872 45.3267C36.018 45.0559 36.2308 44.7788 36.4026 44.4858C36.6892 43.9948 36.882 43.4764 36.9748 42.9263C36.5548 43.046 36.086 43.1885 35.5803 43.3423L35.5802 43.3423L35.5801 43.3423L35.5801 43.3424C34.6877 43.6137 33.6805 43.92 32.6239 44.1971C30.8915 44.6502 29.0285 45.0285 27.2624 45.0306C26.6597 45.0306 26.0654 44.9821 25.49 44.8747C26.1012 45.8462 26.8272 46.7092 27.6797 47.4216C28.2161 47.8694 28.804 48.2572 29.4489 48.5828C29.8852 48.5227 30.3172 48.4321 30.745 48.3194C30.9273 48.0327 31.1539 47.7767 31.4036 47.547C31.8989 47.0938 32.4985 46.7219 33.1486 46.391C33.9832 45.9685 34.9021 45.6218 35.7872 45.3257V45.3267ZM38.9347 25.2237C40.7767 24.5419 42.5754 23.7232 44.1708 22.6304V22.6294C45.3679 22.6378 46.5512 22.7242 47.6787 22.8739C49.4068 23.1025 51.3931 23.4808 53.214 24.1331C53.8937 24.3765 54.5491 24.6578 55.1592 24.9803C55.8273 25.8992 56.429 26.9034 56.9348 27.9666C57.3131 28.7601 57.6345 29.5862 57.9 30.4271C57.6281 30.7474 57.2899 31.0583 56.8905 31.3365C56.2583 31.778 55.5006 32.1415 54.7483 32.3839C52.9843 32.954 51.1129 33.1615 49.1856 33.1615C48.4479 33.1615 47.7029 33.1278 46.9537 33.0762C46.8557 32.7833 46.7525 32.4914 46.6397 32.2037C46.488 31.8149 46.3141 31.4334 46.1287 31.0562C47.9664 30.1552 49.762 29.1626 51.5059 28.0298C51.8262 27.8212 51.959 27.4155 51.8252 27.0583C51.6903 26.7 51.3236 26.4819 50.9453 26.5367C49.209 26.7887 47.5893 27.4718 46.0901 28.1041C45.8151 28.2201 45.5441 28.3343 45.2772 28.4439C45.1521 28.4959 45.0277 28.549 44.9031 28.602L44.9029 28.6021L44.9025 28.6023L44.9023 28.6024C44.81 28.6417 44.7177 28.681 44.625 28.72C43.9874 27.9582 43.2319 27.2616 42.3099 26.6747C41.2467 25.995 40.1086 25.5261 38.9347 25.2237ZM19.6239 34.0316C19.47 34.2898 19.4036 34.5132 19.4026 34.7218V34.7482C19.8114 34.4426 20.2435 34.1665 20.6881 33.9326C20.7915 33.8783 20.8973 33.8304 21.003 33.7824L21.0032 33.7823C21.0698 33.7521 21.1364 33.722 21.2024 33.6902C21.2066 33.294 21.2182 32.8957 21.2371 32.4942C21.0759 32.608 20.9147 32.726 20.7577 32.8504C20.2793 33.2244 19.8515 33.648 19.6239 34.0327V34.0316ZM44.6545 31.7548C44.821 32.093 44.979 32.4387 45.1202 32.798L45.1213 32.7969C45.1259 32.809 45.1303 32.8213 45.1348 32.8338L45.1453 32.8635L45.1454 32.8637L45.1454 32.8638L45.1455 32.8639C45.1517 32.8817 45.158 32.8995 45.1645 32.9171C44.3394 32.8306 43.5154 32.7295 42.6935 32.6231C43.3521 32.3428 44.0054 32.053 44.6545 31.7548ZM49.2108 39.779L49.1765 39.785L49.1761 39.785L49.1759 39.7851L49.1752 39.7852C48.9685 39.821 48.7666 39.8559 48.5723 39.8918C48.6513 40.2026 48.7356 40.5072 48.8315 40.7938C48.9611 40.4576 49.0875 40.1205 49.2098 39.7801L49.2108 39.779ZM39.2816 40.1013L39.2774 40.1022C38.9638 40.1716 38.6504 40.241 38.3373 40.31V40.3111C38.117 39.6451 37.803 39.0044 37.4374 38.3869C36.8283 37.3669 36.0717 36.3922 35.3077 35.447C35.6073 35.3378 35.9071 35.2288 36.2069 35.1199L36.207 35.1199L36.2072 35.1198L36.2073 35.1198L36.2074 35.1197L36.2076 35.1197L36.2077 35.1196L36.2078 35.1196L36.2079 35.1195L36.2081 35.1195L36.2082 35.1194L36.2083 35.1194L36.2084 35.1193L36.2086 35.1193L36.2087 35.1193L36.2088 35.1192L36.2089 35.1192L36.2091 35.1191L36.2092 35.1191L36.2093 35.119L36.2094 35.119C37.3379 34.7089 38.4668 34.2987 39.5859 33.8727C40.253 33.9525 40.9318 34.041 41.6198 34.1307L41.6198 34.1307L41.6199 34.1307L41.62 34.1308L41.6201 34.1308L41.6202 34.1308L41.6204 34.1308C42.9567 34.305 44.3276 34.4837 45.7145 34.6124C46.0507 35.8158 46.3099 37.0782 46.5649 38.3469C45.6924 38.585 44.8241 38.8379 43.9611 39.0993C42.3914 39.4128 40.8334 39.7577 39.2816 40.1013ZM25.2118 38.1658C25.6291 37.914 26.0548 37.6769 26.4827 37.4451C25.3393 37.6927 24.1897 37.8792 23.1096 37.9435C23.1876 38.4683 23.2856 38.9888 23.3984 39.5051C24.0095 38.9435 24.6881 38.482 25.2118 38.1658ZM22.9263 36.3188L22.9252 36.3189H22.9263L22.9263 36.3188ZM28.921 35.1366C26.9635 35.7129 24.7343 36.2228 22.9263 36.3188C22.882 35.7899 22.8557 35.263 22.843 34.7415C25.5206 33.6603 28.5069 33.2873 31.5501 33.2873C31.7345 33.5549 31.9305 33.8205 32.1296 34.085C31.2624 34.3969 30.1476 34.7762 28.921 35.1366ZM24.1096 41.993C24.7904 42.0731 25.49 42.1131 26.196 42.1131C27.9368 42.1131 29.6997 41.9045 31.2572 41.6758C33.0854 41.4082 34.9063 41.0499 36.7293 40.66C36.6513 40.444 36.5628 40.2269 36.4563 40.0056C36.0854 39.2269 35.5501 38.425 34.9389 37.6168C34.5459 37.0952 34.1212 36.5725 33.6924 36.0457C31.0169 37.052 28.4079 38.1405 26.0548 39.5631C25.685 39.7865 25.2171 40.0973 24.7956 40.4461C24.4289 40.7464 24.1054 41.0783 23.8978 41.3755C23.908 41.4078 23.9178 41.4404 23.9276 41.4731C23.9412 41.5183 23.9548 41.5637 23.9695 41.6084C23.9969 41.6912 24.0272 41.7719 24.0576 41.8527L24.0576 41.8527L24.0576 41.8528L24.0576 41.8528L24.0577 41.8528L24.0577 41.8529C24.0752 41.8994 24.0927 41.946 24.1096 41.993ZM35.3352 26.4136C37.5312 26.4273 39.6239 26.8973 41.43 28.0511H41.4311C42.0528 28.4495 42.5828 28.9036 43.0486 29.3989C41.9906 29.8629 40.9404 30.3363 39.8933 30.8084L39.8932 30.8084L39.893 30.8086C39.0213 31.2015 38.1517 31.5936 37.2814 31.9784C35.7103 31.8225 34.0875 31.7076 32.45 31.6739C32.3193 31.4579 32.1961 31.244 32.0907 31.0343C31.7187 30.2977 31.5174 29.6128 31.5185 28.9721C31.5206 28.4695 31.6439 27.9795 31.9347 27.4516C32.6792 27.2152 33.452 26.9823 34.2415 26.7444L34.2417 26.7443C34.6031 26.6354 34.9679 26.5255 35.3352 26.4136ZM35.0843 24.783C36.1665 24.4522 37.2498 24.1055 38.3025 23.7177C38.979 23.4701 39.6407 23.2045 40.2814 22.9179C38.3225 23.234 36.4521 23.8347 34.8378 24.7904C34.873 24.7895 34.9082 24.788 34.9434 24.7865C34.9904 24.7846 35.0374 24.7826 35.0843 24.782V24.783ZM22.8494 32.9953L22.8494 32.9954V32.9964L22.8494 32.9953ZM30.587 31.6729C27.9558 31.7403 25.3236 32.0997 22.8494 32.9953C22.8673 32.4562 22.9042 31.9117 22.9537 31.3673C25.1276 30.0312 27.5343 28.9975 29.9748 28.1176C29.921 28.4031 29.8852 28.6898 29.8852 28.9732C29.8873 29.9216 30.1666 30.8173 30.587 31.6729ZM21.2743 36.0755L21.2742 36.0751C21.2594 35.8824 21.2445 35.6896 21.235 35.4979C20.9452 35.6623 20.6628 35.8456 20.3973 36.0448C20.6439 36.1428 20.9431 36.2165 21.2888 36.2661C21.2841 36.2028 21.2792 36.1394 21.2743 36.076L21.2743 36.0755ZM46.9643 40.1986C47.0939 40.7233 47.2498 41.2471 47.4479 41.755C45.958 42.2468 44.4453 42.7002 42.9272 43.1553L42.9271 43.1554L42.927 43.1554L42.9268 43.1554L42.9267 43.1555L42.9266 43.1555L42.9265 43.1556L42.9263 43.1556L42.9262 43.1556L42.9261 43.1557L42.9259 43.1557L42.9258 43.1558L42.9257 43.1558C41.6763 43.5303 40.4231 43.906 39.176 44.305C38.9326 44.383 38.5786 44.4842 38.1676 44.6011C38.4268 44.0036 38.6028 43.3598 38.6555 42.6759C38.6602 42.6158 38.6614 42.5569 38.6626 42.4979L38.6639 42.4388C39.7294 42.122 40.7941 41.7903 41.8586 41.4587L41.8587 41.4587C42.6987 41.197 43.5386 40.9354 44.3784 40.6812C45.0654 40.5453 45.7524 40.4135 46.4405 40.2955C46.5933 40.2692 46.7714 40.2355 46.9643 40.1986ZM53.0191 39.6076L53.0829 39.5809L53.083 39.5809L53.0832 39.5808L53.0834 39.5807L53.0838 39.5805L53.0844 39.5803C53.2451 39.513 53.4269 39.4369 53.6176 39.3526L53.6461 39.34L53.6254 39.3397L53.5997 39.3389C53.5895 39.3386 53.5793 39.3382 53.5689 39.338L53.5533 39.3379C52.7462 39.3379 51.8821 39.4106 51.0338 39.5139C50.9232 39.8384 50.8094 40.164 50.6914 40.4896L50.68 40.5203L50.6701 40.5462L50.6701 40.5463L50.67 40.5464L50.67 40.5464L50.67 40.5465L50.6698 40.5471L50.6696 40.5476L50.6695 40.5477L50.6695 40.5478C50.6622 40.5668 50.6549 40.5858 50.6482 40.6045C51.2994 40.3484 51.9464 40.0818 52.5818 39.7942C52.6765 39.7515 52.7886 39.7047 52.9212 39.6492L53.018 39.6087L53.0191 39.6076ZM49.1855 34.7931C49.743 34.7931 50.2993 34.7751 50.8557 34.7383C50.7046 35.2054 50.5532 35.6857 50.3992 36.1741L50.399 36.1749L50.3989 36.175C50.2599 36.6161 50.1187 37.064 49.9737 37.5149C49.3626 37.6434 48.7535 37.7804 48.1465 37.9311C47.9347 36.8795 47.7166 35.8046 47.4416 34.7383C48.0222 34.7699 48.6039 34.7931 49.1855 34.7931ZM44.3952 20.4041C44.1634 20.4273 43.9116 20.4695 43.665 20.5211C43.4903 20.5575 43.3212 20.597 43.1599 20.6347L43.1599 20.6347C42.9708 20.6789 42.7924 20.7206 42.6281 20.7519C41.8283 20.9026 41.0306 21.0775 40.2351 21.2682C41.3699 21.0975 42.5153 21.0143 43.6481 20.9995C43.9063 20.8098 44.156 20.6096 44.3963 20.4041H44.3952ZM31.7145 25.0995C30.2424 25.3577 28.8093 25.7528 27.4595 26.2133C28.037 25.9432 28.6102 25.669 29.1812 25.3959L29.1813 25.3958C30.7754 24.6333 32.3531 23.8787 33.9621 23.2418C34.1403 23.1712 34.322 23.1061 34.5039 23.041C34.6179 23.0002 34.7319 22.9594 34.8451 22.9172C34.2498 23.2175 33.6734 23.5558 33.1244 23.9404C32.5817 24.3219 32.1149 24.7065 31.7145 25.0995ZM18.784 37.8804C18.6481 38.1797 18.5838 38.46 18.5838 38.7234C18.5859 39.0048 18.6513 39.2724 18.8293 39.5707C19.0074 39.8668 19.3077 40.1945 19.7883 40.5275C20.4563 40.9911 21.2182 41.3336 22.0422 41.5812C22.0675 41.4537 22.1033 41.3304 22.1476 41.2113C21.842 40.1365 21.6165 39.0364 21.4648 37.931C20.959 37.8878 20.4753 37.8046 20.0275 37.656C19.724 37.5559 19.4363 37.4168 19.1676 37.2472C19.0095 37.46 18.8789 37.6729 18.7861 37.8804H18.784ZM47.6745 43.3974L47.6777 43.3964L47.6755 43.3953L47.6745 43.3974ZM47.6745 43.3974C46.2481 43.8633 44.8148 44.2927 43.39 44.7196L43.3899 44.7196L43.3897 44.7196L43.3896 44.7197L43.3895 44.7197L43.3893 44.7198L43.3892 44.7198L43.3891 44.7198C42.1406 45.0939 40.8986 45.466 39.6734 45.859C39.39 45.9495 39.0302 46.052 38.6188 46.1691L38.6186 46.1692C38.106 46.3151 37.5132 46.4839 36.8884 46.6809C36.8632 46.689 36.8377 46.6975 36.8122 46.7061L36.8117 46.7062C36.7808 46.7166 36.7498 46.727 36.7187 46.7367C36.5069 46.9601 36.2867 47.1761 36.0538 47.3774C34.9516 48.3268 33.6523 49.0371 32.3784 49.5144C33.7408 49.7652 35.2456 49.9327 36.7567 49.9327C39.2087 49.9349 41.645 49.4965 43.4521 48.3911C44.5459 47.7262 45.4711 46.8105 46.2741 45.7157C46.7921 45.0103 47.2522 44.2249 47.6745 43.3974ZM56.7535 40.037C56.6207 39.9337 56.4458 39.8431 56.2509 39.7588L56.2508 39.7589C56.1475 39.8358 56.0443 39.9127 55.9347 39.9833C55.3204 40.3795 54.6133 40.7009 54.0559 40.9411C53.8582 41.0263 53.6765 41.102 53.5318 41.1623C53.408 41.2139 53.3114 41.2541 53.2551 41.2794C52.1339 41.7862 50.9948 42.2383 49.8473 42.6545C50.0022 42.8252 50.1666 42.9822 50.3531 43.1118C50.7335 43.3742 51.1929 43.5639 51.8115 43.6482C52.0622 43.6819 52.313 43.6988 52.5649 43.6988C54.4627 43.7009 56.2941 42.7283 57.2741 41.1392C57.275 41.1266 57.277 41.1134 57.2791 41.1001L57.2791 41.1C57.281 41.088 57.2828 41.0761 57.2838 41.0646C57.2843 41.0592 57.2846 41.0538 57.2846 41.0486C57.2846 40.8768 57.2509 40.7167 57.1666 40.5386C57.0738 40.3447 56.9442 40.1866 56.7525 40.0381L56.7535 40.037ZM55.2498 33.9381C56.3668 33.5756 57.468 33.0013 58.3731 32.2416V32.2405C58.5913 33.3016 58.7135 34.3701 58.7135 35.4186C58.7135 36.7031 58.5354 37.9539 58.1645 39.1309C58.037 38.9897 57.8989 38.858 57.7504 38.7432C57.586 38.6178 57.41 38.5113 57.2288 38.4144L57.2354 38.3777C57.2473 38.3121 57.2593 38.2464 57.2593 38.1763L57.2541 38.0572V38.0551C57.233 37.7716 57.0939 37.4839 56.9084 37.2974C56.626 37.015 56.3194 36.9149 56.0433 36.8506C55.763 36.7895 55.488 36.7727 55.2182 36.7727C54.842 36.7727 54.4753 36.8085 54.1708 36.8443C53.9915 36.8664 53.8276 36.8897 53.7102 36.9063C53.6316 36.9175 53.5738 36.9257 53.5459 36.9286C52.96 36.995 52.3773 37.0804 51.7967 37.1752L51.9463 36.7008L51.9464 36.7007L51.9465 36.7003C52.1838 35.9472 52.412 35.2232 52.6387 34.544C53.5175 34.4091 54.391 34.2142 55.2498 33.9381ZM33.3604 21.7254C36.2487 20.58 39.2782 19.7222 42.3246 19.1479C42.4279 19.129 42.574 19.0949 42.7472 19.0546C42.9202 19.0143 43.1203 18.9677 43.332 18.9235C43.7598 18.835 44.2435 18.7517 44.7408 18.7507C45.0612 18.7507 45.391 18.7844 45.725 18.9024C46.057 19.0183 46.4026 19.2449 46.6323 19.5947C46.8388 19.9066 46.8062 20.3228 46.5533 20.5989C46.4386 20.7231 46.3175 20.8395 46.1964 20.9558C46.1562 20.9944 46.1159 21.0331 46.0759 21.0721C46.6924 21.1163 47.3004 21.1785 47.8926 21.2565C49.3573 21.4514 51.0148 21.758 52.6534 22.2459C52.6291 22.2253 52.6053 22.2038 52.5814 22.1824C52.5494 22.1537 52.5174 22.125 52.4848 22.0984C48.3436 18.7054 43.3341 16.6938 38.2803 16.6959C36.3415 16.6959 34.3952 16.9951 32.4774 17.6221C32.1223 17.7612 31.7682 17.9098 31.4163 18.0721C30.3425 18.5663 29.2782 19.1637 28.1855 19.796C27.6628 20.2101 27.1792 20.6632 26.744 21.1595C25.7861 22.2533 25.0295 23.5326 24.4479 24.9309C24.3119 25.2575 24.1876 25.5916 24.0706 25.9298C25.5378 25.3306 26.9815 24.6403 28.4395 23.9432L28.4395 23.9432C30.0455 23.1753 31.6687 22.3991 33.3594 21.7275L33.3604 21.7254ZM19.3815 27.3619C19.1191 27.3629 18.9052 27.326 18.7587 27.2712H18.7577C18.6101 27.2143 18.5311 27.1532 18.4605 27.0626C18.3351 26.8877 18.3088 26.7781 18.3046 26.6432C18.3035 26.5052 18.352 26.3134 18.4911 26.071C18.7292 25.6474 19.2403 25.1153 19.8957 24.6011C20.8778 23.8234 22.1665 23.0668 23.2982 22.4609C23.5733 22.3123 23.8388 22.1732 24.0907 22.0447C23.2224 23.4693 22.5817 25.0384 22.1307 26.6664L22.1267 26.6832C22.1241 26.6945 22.1216 26.7057 22.1181 26.717L22.0188 26.7541L22.0187 26.7541C21.9385 26.7842 21.8581 26.8143 21.7745 26.8434C20.9431 27.1364 20.0316 27.3661 19.3815 27.3619ZM23.4405 44.5714C23.3747 44.4426 23.3156 44.3098 23.2566 44.177C23.2248 44.1056 23.193 44.0342 23.1602 43.9634C22.9073 43.7895 22.6902 43.5988 22.5132 43.3849C22.4914 43.3801 22.4689 43.3762 22.4464 43.3723C22.4189 43.3676 22.3913 43.3628 22.3646 43.3564C21.117 43.0719 19.9178 42.6041 18.8567 41.8685C18.2287 41.4333 17.7524 40.9476 17.4289 40.4112C17.1054 39.877 16.9495 39.2911 16.9505 38.7231C16.9505 38.1899 17.0822 37.6778 17.2961 37.2068C17.49 36.78 17.7566 36.387 18.0612 36.0182C17.9115 35.6947 17.8146 35.3374 17.7809 34.9581C17.7735 34.877 17.7693 34.7979 17.7693 34.7221C17.7693 34.1499 17.9589 33.6314 18.2234 33.192C18.2845 33.0905 18.3557 32.9985 18.4272 32.9062L18.4273 32.9062C18.4507 32.8758 18.4742 32.8455 18.4974 32.8148C17.822 33.3817 17.2002 33.9823 16.666 34.6209C15.8409 35.6051 15.2171 36.6673 14.8673 37.8085C14.7018 38.3469 14.6281 38.8601 14.6281 39.3564C14.6281 40.6609 15.1412 41.8822 15.9863 43.0066C16.8293 44.1278 17.999 45.1246 19.2087 45.9191C21.3931 47.3575 23.9821 48.3712 26.5775 48.6251C25.2572 47.5071 24.2255 46.113 23.4395 44.5714H23.4405ZM49.4247 44.4538C50.0212 44.869 50.7493 45.1535 51.5923 45.2663H51.5933C51.9168 45.3105 52.2424 45.3316 52.5659 45.3316C52.7588 45.3306 52.9495 45.3211 53.1402 45.3063C52.5048 45.6941 51.9347 46.0081 51.5512 46.2168C49.7061 47.2252 47.724 48.084 45.6745 48.7647C46.39 48.1451 47.0306 47.4475 47.5923 46.6815C48.1602 45.907 48.6565 45.0703 49.1023 44.201C49.2066 44.2884 49.3109 44.3748 49.4247 44.4538Z" fill="#F2FCE6"/>
</svg>
