<svg width="33" height="40" viewBox="0 0 33 40" fill="none" xmlns="http://www.w3.org/2000/svg">
<path d="M13.2 40V30.5333C12.166 30.9111 11.066 31.1111 9.9 31.1111C4.4 31.1111 0 26.6667 0 21.1111C0 18.2889 1.1 15.7556 2.992 13.9333C2.486 12.7333 2.2 11.4 2.2 10C2.2 4.44444 6.6 0 12.1 0C15.532 0 18.568 1.77778 20.35 4.44444H20.9C22.489 4.44444 24.0624 4.76058 25.5305 5.37481C26.9985 5.98903 28.3324 6.88931 29.456 8.02425C30.5796 9.15919 31.4709 10.5066 32.0789 11.9894C32.687 13.4723 33 15.0616 33 16.6667C33 18.2717 32.687 19.861 32.0789 21.3439C31.4709 22.8268 30.5796 24.1741 29.456 25.3091C28.3324 26.444 26.9985 27.3443 25.5305 27.9585C24.0624 28.5728 22.489 28.8889 20.9 28.8889C19.8 28.8889 18.7 28.7333 17.6 28.4222V40H13.2Z" fill="#F2FCE6"/>
</svg>
