<svg width="86" height="94" viewBox="0 0 86 94" fill="none" xmlns="http://www.w3.org/2000/svg">
<path d="M48.3371 4.47826e-07C39.1922 -0.00140803 30.3592 3.31964 23.4867 9.34331C16.6142 15.367 12.1718 23.6817 10.9887 32.7355L0.397087 49.3688C-0.299606 50.4639 -0.158381 52.0948 1.45625 52.7904L10.678 56.729V70.5C10.678 72.993 11.6699 75.384 13.4355 77.1468C15.2012 78.9096 17.5958 79.9 20.0928 79.9H29.5029L29.5076 94H71.874V76.6382C71.874 71.0922 73.9265 65.8423 77.7347 61.1047C82.1705 55.575 84.9513 48.9065 85.7566 41.8676C86.562 34.8287 85.3592 27.7059 82.2868 21.3197C79.2144 14.9336 74.3975 9.54409 68.391 5.77214C62.3845 2.00018 55.4329 -0.000710503 48.3371 4.47826e-07ZM48.3371 9.4C53.6584 9.39978 58.8716 10.9005 63.376 13.7292C67.8804 16.5579 71.4928 20.5995 73.7971 25.3885C76.1014 30.1775 77.0038 35.519 76.4004 40.7977C75.797 46.0764 73.7123 51.0776 70.3865 55.225C65.2366 61.6358 62.4593 68.9349 62.4593 76.6382V84.6H38.9223L38.9129 70.5H20.0928V50.5344L12.7963 47.4136L20.0598 36.0161L20.3282 33.9387C21.2183 27.1511 24.551 20.9185 29.7046 16.4034C34.8582 11.8883 41.4808 9.39911 48.3371 9.4ZM50.832 27.0861L48.3371 29.5771L45.8422 27.0861C44.2888 25.5875 42.2081 24.7581 40.0481 24.7764C37.8881 24.7947 35.8218 25.6593 34.2941 27.184C32.7664 28.7086 31.8996 30.7714 31.8804 32.928C31.8612 35.0845 32.6911 37.1624 34.1914 38.7139L48.3371 52.8421L62.4828 38.7139C63.2695 37.955 63.8969 37.0473 64.3284 36.0437C64.7599 35.0402 64.987 33.9608 64.9962 32.8687C65.0055 31.7766 64.7969 30.6936 64.3825 29.6829C63.968 28.6721 63.3562 27.7539 62.5825 26.9818C61.8089 26.2097 60.889 25.5991 59.8765 25.1858C58.864 24.7724 57.7792 24.5645 56.6854 24.5742C55.5915 24.584 54.5106 24.8111 53.5056 25.2423C52.5007 25.6736 51.5918 26.3004 50.832 27.0861Z" fill="#F2FCE6"/>
</svg>
