<svg width="50" height="43" viewBox="0 0 50 43" fill="none" xmlns="http://www.w3.org/2000/svg">
<path d="M23.75 43C21.6667 43 19.8958 42.2623 18.4375 40.7868C16.9792 39.3113 16.25 37.5196 16.25 35.4118H21.25C21.25 36.1284 21.49 36.7296 21.97 37.2152C22.45 37.7009 23.0433 37.9429 23.75 37.9412C24.4567 37.9395 25.0508 37.6967 25.5325 37.2127C26.0142 36.7287 26.2533 36.1284 26.25 35.4118C26.2467 34.6951 26.0067 34.0948 25.53 33.6108C25.0533 33.1269 24.46 32.884 23.75 32.8824H0V27.8235H23.75C25.8333 27.8235 27.6042 28.5613 29.0625 30.0368C30.5208 31.5123 31.25 33.3039 31.25 35.4118C31.25 37.5196 30.5208 39.3113 29.0625 40.7868C27.6042 42.2623 25.8333 43 23.75 43ZM0 17.7059V12.6471H33.75C34.8333 12.6471 35.7292 12.2887 36.4375 11.5721C37.1458 10.8554 37.5 9.94902 37.5 8.85294C37.5 7.75686 37.1458 6.85049 36.4375 6.13383C35.7292 5.41716 34.8333 5.05883 33.75 5.05883C32.6667 5.05883 31.7708 5.41716 31.0625 6.13383C30.3542 6.85049 30 7.75686 30 8.85294H25C25 6.36569 25.8442 4.26796 27.5325 2.55977C29.2208 0.851571 31.2933 -0.00168378 33.75 2.49449e-06C36.2067 0.00168877 38.28 0.855787 39.97 2.5623C41.66 4.26881 42.5033 6.36569 42.5 8.85294C42.4967 11.3402 41.6533 13.4379 39.97 15.1461C38.2867 16.8543 36.2133 17.7076 33.75 17.7059H0ZM41.25 37.9412V32.8824C42.3333 32.8824 43.2292 32.524 43.9375 31.8074C44.6458 31.0907 45 30.1843 45 29.0882C45 27.9922 44.6458 27.0858 43.9375 26.3691C43.2292 25.6525 42.3333 25.2941 41.25 25.2941H0V20.2353H41.25C43.7083 20.2353 45.7817 21.0894 47.47 22.7976C49.1583 24.5058 50.0017 26.6027 50 29.0882C49.9983 31.5738 49.155 33.6715 47.47 35.3814C45.785 37.0913 43.7117 37.9445 41.25 37.9412Z" fill="#F2FCE6"/>
</svg>
